<svg xmlns="http://www.w3.org/2000/svg" viewBox="0 0 1331.28 590.88"><defs><style>.cls-1{fill:#fff;}</style></defs><g id="Layer_2" data-name="Layer 2"><g id="Layer_1-2" data-name="Layer 1"><g id="Layer_2-2" data-name="Layer 2"><g id="Layer_1-2-2" data-name="Layer 1-2"><path class="cls-1" d="M890.32,590.82C808,593.11,748.5,525.72,736.16,474.27c-5.74-23.92-5.46-47.8-1.9-71.87C745.1,329,784.77,273.88,843.58,231.16c31.79-23.08,66-41.67,103.63-53.46,8.58-2.69,17.49-4,26.33-5.52,9.11-1.6,17,1.79,24.74,5.81a202.47,202.47,0,0,1,34.87,23.09c6.76,5.5,7.71,5.41,14.85.72q12.72-8.36,25.49-16.62a32.91,32.91,0,0,1,4.33-2.44c3.3-1.49,6.77-2.49,9.81.31,2.84,2.61,2.4,5.94,1.29,9.27-7.21,21.56-14.59,43.08-19.6,65.29-6.49,28.8-10.73,57.92-10.39,87.52a381.38,381.38,0,0,1-5.11,65.6c-1.89,11.59-8.24,19.54-19.06,24.33a305.75,305.75,0,0,0-78.07,50.38c-12.18,10.67-14.53,10.78-27.32.89C885,452,858.62,407.26,850.6,351.71c-.68-4.75-1.85-9.43-1.36-14.32a16.66,16.66,0,0,1,8.14-13.09c27.09-16.59,51.48-36.73,74.94-57.93,11.59-10.48,23.44-16.26,39.3-11.59,6.8,2,14.14,2.06,21.17,3.33,6.35,1.16,12.17,4.32,14.59,10.25,8.31,20.42,13.58,41.29,2.68,62.53-9.62,18.72-24.29,32.73-42.18,43.5-6.56,3.94-13.41,7.31-21,9-8,1.82-12-.15-14.51-8-3.54-11.25-7.77-22.24-12-33.24-.58-1.5-1-3.75-2.87-3.66-1.67.08-2,2.33-2.64,3.74a17.13,17.13,0,0,0-.36,12.15c8,26,23.23,47.67,39.75,68.61,9.17,11.63,8.08,11.85,19.55,1.7,8.73-7.72,17.13-15.86,26.25-23.07,11.8-9.33,17.1-21.3,18.56-36,3.14-31.62,6.87-63.19,10.73-94.73,1.12-9.12-.87-15.88-8.66-21.55-13.58-9.9-26.29-21-38.76-32.24-5.74-5.19-11.43-6.18-18.7-3.29-34.5,13.75-63.13,35.53-88.72,62.18-24,25-40.13,53.83-48.32,87.45-3.83,15.7-2.49,31,.75,46.42,1.5,7.16,3,14.34,4.08,21.57,3.94,26.4,18.62,47,35.91,66,15.79,17.35,34.42,31,57.6,36.79,24.15,6,47.31,3.75,68-11.31,5.35-3.89,9.83-9,14.78-13.4a33.47,33.47,0,0,1,5.17-3.84,5.5,5.5,0,0,1,6.54.37c2.12,1.63,2.45,3.79,1.86,6.27a33.94,33.94,0,0,1-4.16,9c-22.67,39-56.94,60.77-101.09,67.73A189.49,189.49,0,0,1,890.32,590.82Z"/><path class="cls-1" d="M502.29,366c14.91-1.44,29.83-2.82,44.72-4.34,9.7-1,12.17-3.19,14.7-12.68a590.68,590.68,0,0,0,16-80.14c1.08-8.69,4.26-11.47,12.92-10.58,38.48,3.94,72.9-7.25,104.94-27.66,10.28-6.54,19.58-14.37,29.13-21.87,2.61-2,5.17-4.24,8.45-5.19,4.92-1.43,8.63,1.34,8.76,6.46.13,4.68-1.9,8.69-3.92,12.71-11.07,22-28.06,39-46.53,54.78-12,10.27-24.61,19.87-37.58,28.92-5.94,4.14-8.81,9.51-9.11,16.75a430.16,430.16,0,0,1-10.33,76.54c-1.09,4.9.07,7.17,4.35,9.36,20.41,10.41,29.87,27.57,30,50.16,0,12.3-5.74,22-14.4,30.15-14.16,13.37-31.83,20.4-49.8,26.44-13.47,4.54-25.21,10.93-35.7,20.83C551.77,552.76,532,565,509.1,571.45a27.87,27.87,0,0,1-3.39.81c-7.32,1.09-11.72-4-8.89-10.89,3.8-9.19,8.19-18.13,12.21-27.23,13.26-30.05,23.57-61,28.23-93.64,1.76-12.38.46-13.76-11.54-10.6-9.48,2.49-18.89,5.25-28.46,7.34-7.27,1.6-12,5.55-15.37,12.09-11.36,22.1-24.12,43.34-41.12,61.62-24.11,25.83-51.46,47.1-85,59.46a86.56,86.56,0,0,1-16.37,4.23c-3.85.61-7.31-.31-9.47-4s-1.05-6.91,1.44-9.63c4.94-5.4,10.3-10.41,15.26-15.8,25.43-27.62,40.64-60.84,52.3-96a219.91,219.91,0,0,0,10.41-48.65c.63-6.63,1.66-9-7.37-6a47,47,0,0,1-25.2,1.71c-11.66-2.48-14.7-6.94-12.72-18.74a70.08,70.08,0,0,0,.11-25.3c-2-10.42-7.41-19.12-14-27.21C339.57,312,340,308.34,354.34,299.46c22.85-14.16,44.34-30,63.59-48.85,12.78-12.5,24.38-25.94,33.73-41.24,3.21-5.25,6.43-10.53,10.72-15,2.07-2.14,4.55-4.22,7.92-2.57s3.91,4.68,3.23,7.67c-5.06,22.21,3.7,41.66,12.58,60.81,11.46,24.74,17,50.25,13.64,77.49a161.05,161.05,0,0,1-4,20.53C493.77,366,494.18,366.51,502.29,366Z"/><path class="cls-1" d="M1214.49,470.33c5.35-15.6,10.22-29.89,15.13-44.16,3-8.62,5.82-17.29,9-25.82,1.46-3.86.63-6.7-2.17-9.4a170.87,170.87,0,0,1-17.59-19.09c-11.61-15.24-18.18-32.4-18.31-51.67-.07-9.65,4.17-17.36,12.46-22.52,8-5,14.63-11.51,20.63-18.7,11.4-13.69,22.71-27.45,34.16-41.1a47.46,47.46,0,0,1,6.76-6.61c7.09-5.66,13-4.72,18.1,2.8,1.78,2.6,3.28,5.39,4.86,8.13,6.57,11.35,13.39,22.58,19.61,34.12,7.38,13.68,12.73,28.16,14,43.8.9,10.79-2.34,21.09-4.58,31.47-9.69,45-19.65,89.91-33.94,133.73-3.25,10-7.61,19.46-11.92,29a39,39,0,0,1-14,16.59c-21.4,14.43-43.79,27-68,36.3a69.19,69.19,0,0,1-12.48,3.4c-8.37,1.52-15-1.67-17.07-10-7.93-31.69-25.48-59-39.26-88-10.45-22-21.75-43.61-29.77-66.79-5.9-17.08-7.23-33.65-2.88-51.32,7.59-30.81,12.29-62.28,20.33-93a416.82,416.82,0,0,1,20.51-59.2c8.52-19.85,23.08-32.13,44.15-37.52,45.63-11.65,88.58-29.28,126.07-58.57.65-.51,1.37-.94,2.07-1.39,2.84-1.85,5.86-2.86,8.65-.21s2,5.73.22,8.65a157.45,157.45,0,0,1-15.16,21.62c-23.78,27.85-51.66,50.25-85.27,65.26-5.3,2.37-10.36,5.25-15.56,7.86-5.68,2.85-9,7.38-10.88,13.5-12.71,41.7-20.39,84.6-30.24,127-1.53,6.57-.32,12.92,2.49,18.94,9.69,20.74,19.37,41.48,29.21,62.14,5.63,11.84,11.56,23.53,17.39,35.28C1212.08,466.28,1213,467.66,1214.49,470.33Z"/><path class="cls-1" d="M168.55,382.78c-2.66,2.32-3.77,5.3-5.07,8.09A450.23,450.23,0,0,1,66.15,526.18c-16.64,16-36.06,28.39-54.89,41.53-2.95,2.06-6.68,3.16-9.62.13-3.11-3.2-1.25-6.53,1.09-9.35,10-12,20.32-23.8,29.16-36.75,18.18-26.64,31.94-55.21,37.44-87.25,3.27-19,4.46-38.1-2.77-56.61a65,65,0,0,0-22.33-29.36c-7.15-5.27-7.31-8.77-1-14.69C83,296.54,112,252.1,131.88,201.5a51.31,51.31,0,0,1,3.78-8.09c1.46-2.38,3.69-3.77,6.78-2.81s4.5,3,4.45,6.33a17.6,17.6,0,0,1-1.23,6.33c-7.74,19.16-8.09,39.21-7.52,59.43.77,27.11,3.68,54.15,2.55,81.32-.22,5.28-1.44,10.53-.62,15.91,2.43.52,2.94-1.58,3.44-2.84,10.09-25.61,22.11-50.52,29.33-77.21a100.73,100.73,0,0,0,2.65-39.59,15.82,15.82,0,0,1-.36-4c.31-2.34-.3-5.17,2.71-6.41a7.4,7.4,0,0,1,7.48.93C197.62,239,205,250.89,210.77,264c6,13.47,9,27.78,11.95,42.12a23,23,0,0,0,1.1,3.81,21.41,21.41,0,0,0,1.6,2.79c2.45-2.27,3.22-5.18,4.37-7.82,11.41-26.25,23.88-52,40.72-75.2,24.66-34,57.34-55.87,99-63.54a24.11,24.11,0,0,1,5.43-.39,5.11,5.11,0,0,1,4.92,3.57,5.86,5.86,0,0,1-1.46,6.43,11.19,11.19,0,0,1-2.82,2c-33.06,17.58-53.92,45.54-67.79,79.5-12.22,29.93-19.76,61.27-28,92.4-8.65,32.56-16.65,65.37-30.1,96.39-14.89,34.35-35.5,64.68-65.4,88-11.37,8.86-24.12,15.22-37.71,20-3.75,1.31-7.27,1.64-9.91-1.89s-.95-6.74,1.21-9.6c11.08-14.63,21-30,27.41-47.25,12.56-34,13.87-68.8,6.64-104.1A21.85,21.85,0,0,0,168.55,382.78Z"/><path class="cls-1" d="M638.1,144a211.72,211.72,0,0,0,47-25.44C727.46,88.4,763.37,52.11,789.45,6.69c2.17-3.77,4.23-8.06,9.83-6.27,4,1.26,5.3,6,3.4,12.09-9.39,29.93-18.45,60.05-34.17,87.45-25.52,44.5-59.13,81.22-105.6,104.35C630.47,220.42,596.19,224,561.06,214c-14.44-4.1-26.9-12.1-38.19-21.92a35,35,0,0,1-7.69-9.75c-4.16-7.65-1-13.46,7.8-14.22q18.4-1.59,36.81-3c3.49-.27,6.55-1.2,8.6-4.22,5-7.32,3.1-12.28-5.51-14.68-25.49-7.08-41.22-35.43-33.06-59.47,2.49-7.36,7.4-12.93,13-18,19.83-18.15,42.82-23.91,68.36-15.46,22.79,7.54,37.24,33.13,34.17,57.76C644,121.93,640.05,132.25,638.1,144Z"/><path class="cls-1" d="M968,296.83a60.29,60.29,0,0,1,6.48,1.65c5.88,2.19,7,5.39,4.29,11.11A33.9,33.9,0,0,1,964.62,325c-2.6,1.46-3.64,1.1-4.3-1.92-1-4.67-2.54-9.23-3.78-13.85-2-7.61-.94-9.47,6.81-11.52C964.77,297.39,966.25,297.18,968,296.83Z"/><path class="cls-1" d="M436.28,318.61c-.11,1.49-.2,3-.33,4.46-.66,7.58-6.25,12-13.68,10.78s-11.07-6.53-9.44-14c1.8-8.27,6.81-14.27,14-18.43,4.09-2.36,7.05-1.15,8.31,3.46A37.41,37.41,0,0,1,436.28,318.61Z"/><path class="cls-1" d="M1250.64,321.6a8,8,0,0,1,2.92-6.62c4.11-3.87,8.16-7.81,12.35-11.59,1.19-1.07,2-3.43,4.45-1.85s5.32,2.37,5.43,5.86a9.56,9.56,0,0,1-.31,3.45c-2.93,8.27-6,16.51-9,24.76-1.19,3.27-3,3.73-5.92,1.73C1254.91,333.5,1251.22,328.57,1250.64,321.6Z"/><path class="cls-1" d="M583.42,100.6c3.31.46,5.74,2.08,5.82,5.93.07,3.47-4.17,8.8-6.71,8.1-3.73-1-5.42-4.21-5.68-7.88C576.61,103.34,579.77,100.51,583.42,100.6Z"/></g></g></g></g></svg>